<svg width="13" height="15" viewBox="0 0 13 15" fill="none" xmlns="http://www.w3.org/2000/svg">
<g clip-path="url(#clip0)">
<path d="M0.928571 13.4641C0.928571 13.8335 1.07532 14.1878 1.33653 14.449C1.59774 14.7102 1.95202 14.857 2.32143 14.857H10.6786C11.048 14.857 11.4023 14.7102 11.6635 14.449C11.9247 14.1878 12.0714 13.8335 12.0714 13.4641V3.71413H0.928571V13.4641ZM8.82143 6.03556C8.82143 5.91242 8.87034 5.79433 8.95741 5.70726C9.04448 5.62019 9.16258 5.57127 9.28571 5.57127C9.40885 5.57127 9.52694 5.62019 9.61401 5.70726C9.70108 5.79433 9.75 5.91242 9.75 6.03556V12.5356C9.75 12.6587 9.70108 12.7768 9.61401 12.8639C9.52694 12.9509 9.40885 12.9998 9.28571 12.9998C9.16258 12.9998 9.04448 12.9509 8.95741 12.8639C8.87034 12.7768 8.82143 12.6587 8.82143 12.5356V6.03556ZM6.03571 6.03556C6.03571 5.91242 6.08463 5.79433 6.1717 5.70726C6.25877 5.62019 6.37686 5.57127 6.5 5.57127C6.62314 5.57127 6.74123 5.62019 6.8283 5.70726C6.91537 5.79433 6.96429 5.91242 6.96429 6.03556V12.5356C6.96429 12.6587 6.91537 12.7768 6.8283 12.8639C6.74123 12.9509 6.62314 12.9998 6.5 12.9998C6.37686 12.9998 6.25877 12.9509 6.1717 12.8639C6.08463 12.7768 6.03571 12.6587 6.03571 12.5356V6.03556ZM3.25 6.03556C3.25 5.91242 3.29892 5.79433 3.38599 5.70726C3.47306 5.62019 3.59115 5.57127 3.71429 5.57127C3.83742 5.57127 3.95551 5.62019 4.04258 5.70726C4.12966 5.79433 4.17857 5.91242 4.17857 6.03556V12.5356C4.17857 12.6587 4.12966 12.7768 4.04258 12.8639C3.95551 12.9509 3.83742 12.9998 3.71429 12.9998C3.59115 12.9998 3.47306 12.9509 3.38599 12.8639C3.29892 12.7768 3.25 12.6587 3.25 12.5356V6.03556ZM12.5357 0.92841H9.05357L8.7808 0.385775C8.72302 0.269766 8.63402 0.172181 8.5238 0.103999C8.41358 0.0358177 8.28652 -0.000255712 8.15692 -0.000162759H4.84018C4.71087 -0.000659851 4.58403 0.0352791 4.47421 0.103537C4.36438 0.171794 4.276 0.269609 4.2192 0.385775L3.94643 0.92841H0.464286C0.341149 0.92841 0.223057 0.977325 0.135986 1.0644C0.0489157 1.15147 0 1.26956 0 1.3927L0 2.32127C0 2.4444 0.0489157 2.5625 0.135986 2.64957C0.223057 2.73664 0.341149 2.78555 0.464286 2.78555H12.5357C12.6588 2.78555 12.7769 2.73664 12.864 2.64957C12.9511 2.5625 13 2.4444 13 2.32127V1.3927C13 1.26956 12.9511 1.15147 12.864 1.0644C12.7769 0.977325 12.6588 0.92841 12.5357 0.92841Z" fill="#FF3F3F"/>
</g>
<defs>
<clipPath id="clip0">
<rect width="13" height="14.8571" fill="white"/>
</clipPath>
</defs>
</svg>
